<svg xmlns="http://www.w3.org/2000/svg" viewBox="0 0 1200 400" width="1200" height="400" role="img" aria-labelledby="t d">
<title id="t">Muhammad Umer Aziz - Full-Stack Developer, Lahore, Pakistan</title>
<desc id="d">Animated 3D banner for Muhammad Umer Aziz (zestymec), a full-stack developer working with Next.js, React Native and Node.js.</desc>
<defs>
<linearGradient id="sky" x1="0" y1="0" x2="0" y2="1">
<stop offset="0" stop-color="#05070F"/><stop offset=".55" stop-color="#0A1028"/><stop offset="1" stop-color="#140B2E"/>
</linearGradient>
<radialGradient id="glow" cx="50%" cy="100%" r="60%">
<stop offset="0" stop-color="#38BDF8" stop-opacity=".45"/><stop offset=".45" stop-color="#8B5CF6" stop-opacity=".18"/><stop offset="1" stop-color="#8B5CF6" stop-opacity="0"/>
</radialGradient>
<linearGradient id="floorFade" x1="0" y1="0" x2="0" y2="1">
<stop offset="0" stop-color="#fff" stop-opacity="0"/><stop offset=".25" stop-color="#fff" stop-opacity=".55"/><stop offset="1" stop-color="#fff" stop-opacity="1"/>
</linearGradient>
<mask id="floorMask"><rect x="0" y="262" width="1200" height="138" fill="url(#floorFade)"/></mask>
<linearGradient id="nameFill" x1="0" y1="0" x2="1" y2="1">
<stop offset="0" stop-color="#E0F2FE"/><stop offset=".5" stop-color="#7DD3FC"/><stop offset="1" stop-color="#C4B5FD"/>
</linearGradient>
<linearGradient id="shine" x1="0" y1="0" x2="1" y2="0">
<stop offset="0" stop-color="#fff" stop-opacity="0"/><stop offset=".5" stop-color="#fff" stop-opacity=".85"/><stop offset="1" stop-color="#fff" stop-opacity="0"/>
</linearGradient>
<clipPath id="nameClip"><text class="name" x="600" y="142">Muhammad Umer Aziz</text></clipPath>
<linearGradient id="cTop" x1="0" y1="0" x2="1" y2="1"><stop offset="0" stop-color="#BAE6FD"/><stop offset="1" stop-color="#38BDF8"/></linearGradient>
<linearGradient id="cLeft" x1="0" y1="0" x2="0" y2="1"><stop offset="0" stop-color="#0EA5E9"/><stop offset="1" stop-color="#075985"/></linearGradient>
<linearGradient id="cRight" x1="0" y1="0" x2="0" y2="1"><stop offset="0" stop-color="#0369A1"/><stop offset="1" stop-color="#0C2A4A"/></linearGradient>
<linearGradient id="vTop" x1="0" y1="0" x2="1" y2="1"><stop offset="0" stop-color="#DDD6FE"/><stop offset="1" stop-color="#A78BFA"/></linearGradient>
<linearGradient id="vLeft" x1="0" y1="0" x2="0" y2="1"><stop offset="0" stop-color="#8B5CF6"/><stop offset="1" stop-color="#4C1D95"/></linearGradient>
<linearGradient id="vRight" x1="0" y1="0" x2="0" y2="1"><stop offset="0" stop-color="#6D28D9"/><stop offset="1" stop-color="#2E1065"/></linearGradient>
<filter id="soft" x="-20%" y="-20%" width="140%" height="140%"><feGaussianBlur stdDeviation="10"/></filter>
<filter id="drop" x="-20%" y="-50%" width="140%" height="200%"><feDropShadow dx="0" dy="0" stdDeviation="6" flood-color="#38BDF8" flood-opacity=".55"/></filter>
</defs>
<style>
.name{font:800 66px "Segoe UI","Helvetica Neue",Helvetica,Arial,sans-serif;text-anchor:middle;letter-spacing:-.5px}
.sub{font:600 19px "Segoe UI","Helvetica Neue",Helvetica,Arial,sans-serif;fill:#CBD5E1;text-anchor:middle;letter-spacing:3px}
.mono{font:500 19.3px "SFMono-Regular",Consolas,"Liberation Mono",Menlo,monospace;fill:#38BDF8}
.cur{fill:#38BDF8}
.tw{fill:#E0F2FE;animation:tw 4s ease-in-out infinite}
.bob{animation:bob 6s ease-in-out infinite}
.bob2{animation:bob 4.5s ease-in-out infinite}
.grid line{stroke:#38BDF8;stroke-width:1.2;stroke-opacity:.75}
.ring{transform-origin:600px 262px;animation:pulse 5s ease-in-out infinite}
.sweep{animation:sweep 6s ease-in-out infinite}
@keyframes tw{0%,100%{opacity:.15}50%{opacity:.95}}
@keyframes bob{0%,100%{transform:translateY(0)}50%{transform:translateY(-12px)}}
@keyframes pulse{0%,100%{opacity:.75}50%{opacity:1}}
@keyframes sweep{0%{transform:translateX(-520px)}55%,100%{transform:translateX(520px)}}
</style>
<rect width="1200" height="400" fill="url(#sky)"/>
<g><circle class="tw" cx="1156" cy="227" r="1.5" style="animation-delay:-2.26s"/><circle class="tw" cx="398" cy="55" r="1.5" style="animation-delay:-3.15s"/><circle class="tw" cx="391" cy="32" r="1.5" style="animation-delay:-1.52s"/><circle class="tw" cx="195" cy="145" r="0.7" style="animation-delay:-2.98s"/><circle class="tw" cx="40" cy="220" r="0.7" style="animation-delay:-0.3s"/><circle class="tw" cx="71" cy="207" r="1.5" style="animation-delay:-1.63s"/><circle class="tw" cx="19" cy="177" r="0.7" style="animation-delay:-2.29s"/><circle class="tw" cx="1138" cy="246" r="0.7" style="animation-delay:-3.54s"/><circle class="tw" cx="601" cy="15" r="0.7" style="animation-delay:-2.82s"/><circle class="tw" cx="230" cy="224" r="1.1" style="animation-delay:-1.93s"/><circle class="tw" cx="44" cy="224" r="0.7" style="animation-delay:-1.07s"/><circle class="tw" cx="117" cy="128" r="1.5" style="animation-delay:-4.9s"/><circle class="tw" cx="159" cy="152" r="0.9" style="animation-delay:-3.89s"/><circle class="tw" cx="188" cy="87" r="1.1" style="animation-delay:-0.08s"/><circle class="tw" cx="251" cy="42" r="0.9" style="animation-delay:-3.54s"/><circle class="tw" cx="32" cy="23" r="1.5" style="animation-delay:-3.99s"/><circle class="tw" cx="1155" cy="56" r="1.5" style="animation-delay:-2.54s"/><circle class="tw" cx="795" cy="37" r="1.5" style="animation-delay:-2.1s"/><circle class="tw" cx="445" cy="8" r="1.1" style="animation-delay:-4.32s"/><circle class="tw" cx="50" cy="61" r="0.9" style="animation-delay:-1.97s"/><circle class="tw" cx="215" cy="18" r="0.9" style="animation-delay:-1.07s"/><circle class="tw" cx="538" cy="10" r="1.1" style="animation-delay:-4.15s"/><circle class="tw" cx="800" cy="26" r="0.7" style="animation-delay:-0.45s"/><circle class="tw" cx="507" cy="11" r="1.1" style="animation-delay:-1.86s"/><circle class="tw" cx="938" cy="40" r="1.5" style="animation-delay:-4.16s"/><circle class="tw" cx="800" cy="54" r="0.9" style="animation-delay:-1.55s"/><circle class="tw" cx="398" cy="48" r="0.9" style="animation-delay:-3.43s"/><circle class="tw" cx="998" cy="162" r="0.7" style="animation-delay:-2.11s"/><circle class="tw" cx="222" cy="35" r="0.7" style="animation-delay:-2.56s"/><circle class="tw" cx="532" cy="69" r="1.5" style="animation-delay:-1.28s"/><circle class="tw" cx="1015" cy="83" r="0.9" style="animation-delay:-4.65s"/><circle class="tw" cx="150" cy="40" r="0.9" style="animation-delay:-2.4s"/><circle class="tw" cx="161" cy="79" r="0.9" style="animation-delay:-4.59s"/><circle class="tw" cx="43" cy="25" r="1.1" style="animation-delay:-2.06s"/><circle class="tw" cx="520" cy="23" r="0.7" style="animation-delay:-0.88s"/><circle class="tw" cx="1181" cy="41" r="0.7" style="animation-delay:-1.81s"/><circle class="tw" cx="1078" cy="157" r="0.9" style="animation-delay:-2.95s"/><circle class="tw" cx="46" cy="129" r="1.1" style="animation-delay:-3.5s"/><circle class="tw" cx="78" cy="13" r="0.7" style="animation-delay:-2.41s"/><circle class="tw" cx="289" cy="26" r="0.7" style="animation-delay:-2.27s"/><circle class="tw" cx="101" cy="238" r="0.9" style="animation-delay:-3.97s"/><circle class="tw" cx="183" cy="183" r="1.5" style="animation-delay:-4.5s"/></g>
<ellipse class="ring" cx="600" cy="262" rx="620" ry="190" fill="url(#glow)"/>
<g class="grid" mask="url(#floorMask)"><line x1="0" x2="1200" y1="262.0" y2="262.0"><animate attributeName="y1" values="262.0;263.1" dur="1.6s" repeatCount="indefinite"/><animate attributeName="y2" values="262.0;263.1" dur="1.6s" repeatCount="indefinite"/></line><line x1="0" x2="1200" y1="263.1" y2="263.1"><animate attributeName="y1" values="263.1;267.0" dur="1.6s" repeatCount="indefinite"/><animate attributeName="y2" values="263.1;267.0" dur="1.6s" repeatCount="indefinite"/></line><line x1="0" x2="1200" y1="267.0" y2="267.0"><animate attributeName="y1" values="267.0;274.3" dur="1.6s" repeatCount="indefinite"/><animate attributeName="y2" values="267.0;274.3" dur="1.6s" repeatCount="indefinite"/></line><line x1="0" x2="1200" y1="274.3" y2="274.3"><animate attributeName="y1" values="274.3;285.2" dur="1.6s" repeatCount="indefinite"/><animate attributeName="y2" values="274.3;285.2" dur="1.6s" repeatCount="indefinite"/></line><line x1="0" x2="1200" y1="285.2" y2="285.2"><animate attributeName="y1" values="285.2;299.9" dur="1.6s" repeatCount="indefinite"/><animate attributeName="y2" values="285.2;299.9" dur="1.6s" repeatCount="indefinite"/></line><line x1="0" x2="1200" y1="299.9" y2="299.9"><animate attributeName="y1" values="299.9;318.6" dur="1.6s" repeatCount="indefinite"/><animate attributeName="y2" values="299.9;318.6" dur="1.6s" repeatCount="indefinite"/></line><line x1="0" x2="1200" y1="318.6" y2="318.6"><animate attributeName="y1" values="318.6;341.4" dur="1.6s" repeatCount="indefinite"/><animate attributeName="y2" values="318.6;341.4" dur="1.6s" repeatCount="indefinite"/></line><line x1="0" x2="1200" y1="341.4" y2="341.4"><animate attributeName="y1" values="341.4;368.5" dur="1.6s" repeatCount="indefinite"/><animate attributeName="y2" values="341.4;368.5" dur="1.6s" repeatCount="indefinite"/></line><line x1="0" x2="1200" y1="368.5" y2="368.5"><animate attributeName="y1" values="368.5;400.0" dur="1.6s" repeatCount="indefinite"/><animate attributeName="y2" values="368.5;400.0" dur="1.6s" repeatCount="indefinite"/></line><line x1="56" y1="262" x2="-1800" y2="400"/><line x1="90" y1="262" x2="-1650" y2="400"/><line x1="124" y1="262" x2="-1500" y2="400"/><line x1="158" y1="262" x2="-1350" y2="400"/><line x1="192" y1="262" x2="-1200" y2="400"/><line x1="226" y1="262" x2="-1050" y2="400"/><line x1="260" y1="262" x2="-900" y2="400"/><line x1="294" y1="262" x2="-750" y2="400"/><line x1="328" y1="262" x2="-600" y2="400"/><line x1="362" y1="262" x2="-450" y2="400"/><line x1="396" y1="262" x2="-300" y2="400"/><line x1="430" y1="262" x2="-150" y2="400"/><line x1="464" y1="262" x2="0" y2="400"/><line x1="498" y1="262" x2="150" y2="400"/><line x1="532" y1="262" x2="300" y2="400"/><line x1="566" y1="262" x2="450" y2="400"/><line x1="600" y1="262" x2="600" y2="400"/><line x1="634" y1="262" x2="750" y2="400"/><line x1="668" y1="262" x2="900" y2="400"/><line x1="702" y1="262" x2="1050" y2="400"/><line x1="736" y1="262" x2="1200" y2="400"/><line x1="770" y1="262" x2="1350" y2="400"/><line x1="804" y1="262" x2="1500" y2="400"/><line x1="838" y1="262" x2="1650" y2="400"/><line x1="872" y1="262" x2="1800" y2="400"/><line x1="906" y1="262" x2="1950" y2="400"/><line x1="940" y1="262" x2="2100" y2="400"/><line x1="974" y1="262" x2="2250" y2="400"/><line x1="1008" y1="262" x2="2400" y2="400"/><line x1="1042" y1="262" x2="2550" y2="400"/><line x1="1076" y1="262" x2="2700" y2="400"/><line x1="1110" y1="262" x2="2850" y2="400"/><line x1="1144" y1="262" x2="3000" y2="400"/></g>
<line x1="0" y1="262" x2="1200" y2="262" stroke="#7DD3FC" stroke-opacity=".9" stroke-width="1.5" filter="url(#drop)"/>
<g><g class="bob" style="animation-delay:-0s"><polygon points="150,94 189.8,117.0 150,140 110.2,117.0" fill="url(#cTop)"/><polygon points="110.2,117.0 150,140 150,186 110.2,163.0" fill="url(#cLeft)"/><polygon points="189.8,117.0 150,140 150,186 189.8,163.0" fill="url(#cRight)"/><polyline points="110.2,117.0 150,140 189.8,117.0" fill="none" stroke="#E0F2FE" stroke-opacity=".35" stroke-width="1"/><line x1="150" y1="140" x2="150" y2="186" stroke="#E0F2FE" stroke-opacity=".2"/></g><g class="bob2" style="animation-delay:-1.2s"><polygon points="250,193 269.1,204.0 250,215 230.9,204.0" fill="url(#vTop)"/><polygon points="230.9,204.0 250,215 250,237 230.9,226.0" fill="url(#vLeft)"/><polygon points="269.1,204.0 250,215 250,237 269.1,226.0" fill="url(#vRight)"/><polyline points="230.9,204.0 250,215 269.1,204.0" fill="none" stroke="#E0F2FE" stroke-opacity=".35" stroke-width="1"/><line x1="250" y1="215" x2="250" y2="237" stroke="#E0F2FE" stroke-opacity=".2"/></g><g class="bob2" style="animation-delay:-2.1s"><polygon points="95,231 107.1,238.0 95,245 82.9,238.0" fill="url(#cTop)"/><polygon points="82.9,238.0 95,245 95,259 82.9,252.0" fill="url(#cLeft)"/><polygon points="107.1,238.0 95,245 95,259 107.1,252.0" fill="url(#cRight)"/><polyline points="82.9,238.0 95,245 107.1,238.0" fill="none" stroke="#E0F2FE" stroke-opacity=".35" stroke-width="1"/><line x1="95" y1="245" x2="95" y2="259" stroke="#E0F2FE" stroke-opacity=".2"/></g><g class="bob" style="animation-delay:-1.7s"><polygon points="1055,85 1089.6,105.0 1055,125 1020.4,105.0" fill="url(#vTop)"/><polygon points="1020.4,105.0 1055,125 1055,165 1020.4,145.0" fill="url(#vLeft)"/><polygon points="1089.6,105.0 1055,125 1055,165 1089.6,145.0" fill="url(#vRight)"/><polyline points="1020.4,105.0 1055,125 1089.6,105.0" fill="none" stroke="#E0F2FE" stroke-opacity=".35" stroke-width="1"/><line x1="1055" y1="125" x2="1055" y2="165" stroke="#E0F2FE" stroke-opacity=".2"/></g><g class="bob2" style="animation-delay:-0.6s"><polygon points="965,195 982.3,205.0 965,215 947.7,205.0" fill="url(#cTop)"/><polygon points="947.7,205.0 965,215 965,235 947.7,225.0" fill="url(#cLeft)"/><polygon points="982.3,205.0 965,215 965,235 982.3,225.0" fill="url(#cRight)"/><polyline points="947.7,205.0 965,215 982.3,205.0" fill="none" stroke="#E0F2FE" stroke-opacity=".35" stroke-width="1"/><line x1="965" y1="215" x2="965" y2="235" stroke="#E0F2FE" stroke-opacity=".2"/></g><g class="bob" style="animation-delay:-2.6s"><polygon points="1120,222 1131.3,228.5 1120,235 1108.7,228.5" fill="url(#vTop)"/><polygon points="1108.7,228.5 1120,235 1120,248 1108.7,241.5" fill="url(#vLeft)"/><polygon points="1131.3,228.5 1120,235 1120,248 1131.3,241.5" fill="url(#vRight)"/><polyline points="1108.7,228.5 1120,235 1131.3,228.5" fill="none" stroke="#E0F2FE" stroke-opacity=".35" stroke-width="1"/><line x1="1120" y1="235" x2="1120" y2="248" stroke="#E0F2FE" stroke-opacity=".2"/></g></g>
<text class="name" x="600" y="142" fill="#38BDF8" opacity=".35" filter="url(#soft)">Muhammad Umer Aziz</text>
<text class="name" x="607.7" y="151.1" fill="#041A2D">Muhammad Umer Aziz</text><text class="name" x="606.6" y="149.8" fill="#052238">Muhammad Umer Aziz</text><text class="name" x="605.5" y="148.5" fill="#062A42">Muhammad Umer Aziz</text><text class="name" x="604.4" y="147.2" fill="#08324D">Muhammad Umer Aziz</text><text class="name" x="603.3" y="145.9" fill="#093A58">Muhammad Umer Aziz</text><text class="name" x="602.2" y="144.6" fill="#0B4263">Muhammad Umer Aziz</text><text class="name" x="601.1" y="143.3" fill="#0C4A6E">Muhammad Umer Aziz</text>
<text class="name" x="600" y="142" fill="url(#nameFill)">Muhammad Umer Aziz</text>
<g clip-path="url(#nameClip)"><g transform="translate(40 0) skewX(-20)"><rect class="sweep" x="480" y="70" width="120" height="90" fill="url(#shine)" opacity=".55"/></g></g>
<text class="sub" x="600" y="184">FULL-STACK DEVELOPER  ·  LAHORE, PAKISTAN</text>
<clipPath id="tc0"><rect x="414.4" y="200" height="40" width="0"><animate attributeName="width" values="0;0;375.2;375.2;0;0" keyTimes="0;0.0001;0.14;0.3;0.3233;1" dur="10.5s" repeatCount="indefinite"/></rect></clipPath><text class="mono" x="414.4" y="226" clip-path="url(#tc0)">> building web &amp; mobile products</text><rect class="cur" y="209" width="10" height="21" x="414.4" opacity="0"><animate attributeName="x" values="414.4;414.4;789.6;789.6;414.4;414.4" keyTimes="0;0.0001;0.14;0.3;0.3233;1" dur="10.5s" repeatCount="indefinite"/><animate attributeName="opacity" values="0;1;1;1;0;0" keyTimes="0;0.0001;0.14;0.3;0.3233;1" dur="10.5s" repeatCount="indefinite" calcMode="discrete"/></rect><clipPath id="tc1"><rect x="402.8" y="200" height="40" width="0"><animate attributeName="width" values="0;0;398.4;398.4;0;0" keyTimes="0;0.3333;0.4733;0.6333;0.6567;1" dur="10.5s" repeatCount="indefinite"/></rect></clipPath><text class="mono" x="402.8" y="226" clip-path="url(#tc1)">> next.js · react native · node.js</text><rect class="cur" y="209" width="10" height="21" x="402.8" opacity="0"><animate attributeName="x" values="402.8;402.8;801.2;801.2;402.8;402.8" keyTimes="0;0.3333;0.4733;0.6333;0.6567;1" dur="10.5s" repeatCount="indefinite"/><animate attributeName="opacity" values="0;1;1;1;0;0" keyTimes="0;0.3333;0.4733;0.6333;0.6567;1" dur="10.5s" repeatCount="indefinite" calcMode="discrete"/></rect><clipPath id="tc2"><rect x="391.2" y="200" height="40" width="0"><animate attributeName="width" values="0;0;421.6;421.6;0;0" keyTimes="0;0.6667;0.8067;0.9667;0.99;1" dur="10.5s" repeatCount="indefinite"/></rect></clipPath><text class="mono" x="391.2" y="226" clip-path="url(#tc2)">> learning ML, MLOps &amp; system design</text><rect class="cur" y="209" width="10" height="21" x="391.2" opacity="0"><animate attributeName="x" values="391.2;391.2;812.8;812.8;391.2;391.2" keyTimes="0;0.6667;0.8067;0.9667;0.99;1" dur="10.5s" repeatCount="indefinite"/><animate attributeName="opacity" values="0;1;1;1;0;0" keyTimes="0;0.6667;0.8067;0.9667;0.99;1" dur="10.5s" repeatCount="indefinite" calcMode="discrete"/></rect>
</svg>
